#define icon_game_width 64
#define icon_game_height 64
static unsigned char icon_game_bits[] = {
   0x00, 0x00, 0x00, 0x00, 0x00, 0x00, 0x00, 0x00, 0x00, 0x00, 0x00, 0x00,
   0x00, 0x00, 0x00, 0x00, 0x40, 0x00, 0x00, 0x00, 0x00, 0x00, 0x00, 0x08,
   0x50, 0x00, 0x00, 0x00, 0x00, 0x00, 0x00, 0x09, 0xe0, 0x01, 0x00, 0x00,
   0x00, 0x00, 0x80, 0x07, 0xc0, 0x03, 0x00, 0x00, 0x00, 0x00, 0x40, 0x03,
   0x80, 0x05, 0x00, 0x00, 0x00, 0x00, 0xe0, 0x01, 0x00, 0x0f, 0x04, 0x80,
   0x00, 0x10, 0xd0, 0x00, 0x00, 0x9a, 0x0f, 0x00, 0x04, 0xe8, 0x68, 0x00,
   0x00, 0x8c, 0x00, 0x48, 0x01, 0x00, 0x31, 0x00, 0x00, 0x0c, 0x00, 0xc0,
   0x07, 0x00, 0x10, 0x00, 0x00, 0x20, 0x00, 0xf8, 0x1f, 0x00, 0x0a, 0x00,
   0x00, 0x58, 0x00, 0xfe, 0x7f, 0x00, 0x0c, 0x00, 0x00, 0xa8, 0xc0, 0xff,
   0xff, 0x07, 0x15, 0x00, 0x00, 0x65, 0xfe, 0xfb, 0xff, 0x7f, 0xa6, 0x00,
   0x00, 0x80, 0x7f, 0xff, 0xff, 0xff, 0x01, 0x00, 0x00, 0x82, 0xdf, 0xf5,
   0xff, 0xff, 0x42, 0x00, 0x00, 0x07, 0x7f, 0x3f, 0xfe, 0xff, 0xc0, 0x00,
   0x00, 0x80, 0x57, 0x01, 0xf0, 0xff, 0x01, 0x00, 0x00, 0x20, 0xdf, 0x00,
   0x80, 0xff, 0x05, 0x00, 0x00, 0xa0, 0x2f, 0x00, 0x00, 0xfc, 0x05, 0x00,
   0x00, 0x20, 0x3f, 0x00, 0x00, 0xfc, 0x05, 0x00, 0x00, 0xa0, 0x2b, 0x00,
   0x00, 0xfc, 0x05, 0x00, 0x00, 0x20, 0x3f, 0x00, 0x00, 0xfc, 0x05, 0x00,
   0x00, 0xa0, 0x17, 0x00, 0x00, 0xfc, 0x05, 0x00, 0x00, 0xa0, 0x3f, 0x00,
   0x00, 0xfc, 0x05, 0x00, 0x00, 0xa0, 0x2f, 0x00, 0x00, 0xfc, 0x05, 0x00,
   0x00, 0x20, 0x3f, 0x00, 0x00, 0xfc, 0x05, 0x00, 0x00, 0xa0, 0x17, 0x00,
   0x00, 0xfc, 0x05, 0x00, 0x00, 0x20, 0x3f, 0x00, 0x00, 0xfe, 0x05, 0x00,
   0x00, 0xa0, 0x3f, 0x00, 0x00, 0xfc, 0x05, 0x00, 0x00, 0x20, 0x3f, 0x00,
   0x00, 0xfe, 0x04, 0x00, 0x00, 0x00, 0x6f, 0x00, 0x00, 0xfe, 0x00, 0x00,
   0x00, 0x00, 0x7f, 0x00, 0x00, 0xfe, 0x00, 0x00, 0x00, 0x40, 0x7f, 0x00,
   0x00, 0xfe, 0x02, 0x00, 0x00, 0x40, 0xfe, 0x00, 0x00, 0xff, 0x02, 0x00,
   0x00, 0x40, 0xbe, 0x00, 0x80, 0x7f, 0x02, 0x00, 0x00, 0x00, 0xfe, 0x00,
   0x00, 0x7f, 0x00, 0x00, 0x00, 0x80, 0xfe, 0x01, 0xc0, 0x7f, 0x01, 0x00,
   0x00, 0x80, 0xfc, 0x03, 0x82, 0x7f, 0x01, 0x00, 0x00, 0x80, 0xfd, 0x83,
   0xe0, 0x3f, 0x01, 0x00, 0x00, 0x00, 0xfd, 0x07, 0xc0, 0xbf, 0x00, 0x00,
   0x00, 0x00, 0xf9, 0x07, 0xe0, 0x9f, 0x00, 0x00, 0x00, 0x00, 0xfa, 0x1f,
   0xf0, 0x5f, 0x00, 0x00, 0x00, 0x00, 0xf0, 0x0f, 0xf8, 0x4f, 0x00, 0x00,
   0x00, 0x00, 0xf5, 0x3f, 0xf8, 0x2f, 0x00, 0x00, 0x00, 0x00, 0xe4, 0x3f,
   0xfe, 0xa7, 0x00, 0x00, 0x00, 0x00, 0xcd, 0x7f, 0xfe, 0x73, 0x00, 0x00,
   0x00, 0x00, 0xcb, 0xff, 0xff, 0xd3, 0x00, 0x00, 0x00, 0x40, 0x91, 0xff,
   0xff, 0x89, 0x02, 0x00, 0x00, 0xa0, 0x20, 0xff, 0xff, 0x04, 0x05, 0x00,
   0x00, 0x68, 0x60, 0xfe, 0x7f, 0x06, 0x0a, 0x00, 0x00, 0x10, 0x40, 0xfc,
   0x3f, 0x02, 0x14, 0x00, 0x00, 0x1a, 0x80, 0xf8, 0x3f, 0x01, 0x58, 0x00,
   0x00, 0x0c, 0x00, 0xf9, 0xdf, 0x00, 0x30, 0x00, 0x00, 0x00, 0x00, 0xe6,
   0x47, 0x00, 0x00, 0x00, 0x00, 0x00, 0x00, 0xd4, 0x33, 0x00, 0x00, 0x00,
   0x00, 0x00, 0x00, 0x98, 0x15, 0x00, 0x00, 0x00, 0x00, 0x00, 0x00, 0xb0,
   0x0e, 0x00, 0x00, 0x00, 0x00, 0x00, 0x00, 0xe0, 0x06, 0x00, 0x00, 0x00,
   0x00, 0x00, 0x00, 0x80, 0x01, 0x00, 0x00, 0x00, 0x00, 0x00, 0x00, 0x00,
   0x00, 0x00, 0x00, 0x00, 0x00, 0x00, 0x00, 0x00, 0x00, 0x00, 0x00, 0x00,
   0x00, 0x00, 0x00, 0x00, 0x00, 0x00, 0x00, 0x00 };
